<?xml version="1.0" encoding="UTF-8" standalone="no"?>
<!-- Created with Inkscape (http://www.inkscape.org/) -->

<svg
   xmlns:dc="http://purl.org/dc/elements/1.1/"
   xmlns:cc="http://creativecommons.org/ns#"
   xmlns:rdf="http://www.w3.org/1999/02/22-rdf-syntax-ns#"
   xmlns:svg="http://www.w3.org/2000/svg"
   xmlns="http://www.w3.org/2000/svg"
   xmlns:sodipodi="http://sodipodi.sourceforge.net/DTD/sodipodi-0.dtd"
   xmlns:inkscape="http://www.inkscape.org/namespaces/inkscape"
   width="800"
   height="480"
   id="svg2"
   version="1.1"
   inkscape:version="0.48.2 r9819"
   sodipodi:docname="world_map.svg"
   inkscape:export-filename="D:\Dev\Slamdunk.Prototypes\WordArena\work\world_map.png"
   inkscape:export-xdpi="90"
   inkscape:export-ydpi="90">
  <defs
     id="defs4" />
  <sodipodi:namedview
     id="base"
     pagecolor="#ffffff"
     bordercolor="#666666"
     borderopacity="1.0"
     inkscape:pageopacity="0.0"
     inkscape:pageshadow="2"
     inkscape:zoom="0.49497475"
     inkscape:cx="425.58859"
     inkscape:cy="217.43795"
     inkscape:document-units="px"
     inkscape:current-layer="layer1"
     showgrid="false"
     inkscape:showpageshadow="false"
     inkscape:window-width="1280"
     inkscape:window-height="998"
     inkscape:window-x="-4"
     inkscape:window-y="-4"
     inkscape:window-maximized="1" />
  <metadata
     id="metadata7">
    <rdf:RDF>
      <cc:Work
         rdf:about="">
        <dc:format>image/svg+xml</dc:format>
        <dc:type
           rdf:resource="http://purl.org/dc/dcmitype/StillImage" />
        <dc:title></dc:title>
      </cc:Work>
    </rdf:RDF>
  </metadata>
  <g
     inkscape:label="Calque 1"
     inkscape:groupmode="layer"
     id="layer1"
     transform="translate(0,-572.36218)">
    <rect
       style="fill:#87aade;fill-opacity:1;fill-rule:nonzero;stroke:#5f8dd3;stroke-width:10;stroke-linecap:round;stroke-linejoin:round;stroke-miterlimit:4;stroke-opacity:1;stroke-dasharray:none;stroke-dashoffset:0"
       id="rect3976"
       width="1028.5714"
       height="752.85712"
       x="4.9999962"
       y="294.50507" />
    <path
       style="fill:#008000;fill-opacity:1;fill-rule:nonzero;stroke:none"
       d="M 132.14286,377.36223 865,474.50509 722.35006,834.50513 156.42857,897.36223 z"
       id="rect2987"
       inkscape:connector-curvature="0"
       sodipodi:nodetypes="ccccc" />
    <path
       style="fill:#aa8800;fill-opacity:1;fill-rule:nonzero;stroke:none"
       d="m 146.42857,445.21934 1.42857,-47.14285 491.63577,-8.57141 264.66963,17.95423 -227.73397,300.61719 z"
       id="rect2987-1"
       inkscape:connector-curvature="0"
       sodipodi:nodetypes="cccccc" />
    <path
       style="fill:#782121;fill-opacity:1;fill-rule:nonzero;stroke:none"
       d="M 559.28572,449.50506 645,442.3622 758.23199,514.20474 655.2072,628.07651 513.57143,602.36222 z"
       id="rect2987-7"
       inkscape:connector-curvature="0"
       sodipodi:nodetypes="cccccc" />
    <path
       style="fill:none;stroke:#000000;stroke-width:2;stroke-linecap:butt;stroke-linejoin:miter;stroke-miterlimit:4;stroke-opacity:1;stroke-dasharray:8, 16;stroke-dashoffset:0"
       d="m 206.42857,850.21935 54.28571,-45.71428 -2.85714,-52.85715 -48.57143,-82.85714 144.28572,20 88.57143,94.28572 135.71428,-8.57143 -21.42857,-71.42857 -220,-98.57143 L 257.85714,437.36221 383.57143,488.79078 445,434.50507 l 65.71428,20 67.14286,62.85714 48.57143,48.57143 L 705,517.36221 780.71428,453.0765 835,477.36221 l 65.71428,110 7.14286,192.85714"
       id="path3168"
       inkscape:connector-curvature="0" />
    <path
       sodipodi:type="arc"
       style="fill:#000000;fill-opacity:1;fill-rule:nonzero;stroke:none"
       id="path3022"
       sodipodi:cx="47.142857"
       sodipodi:cy="441.42856"
       sodipodi:rx="10"
       sodipodi:ry="10"
       d="m 57.142857,441.42856 a 10,10 0 1 1 -4.26e-4,-0.0922"
       transform="matrix(1.6,0,0,1.6,134.143,146.50507)"
       sodipodi:start="0"
       sodipodi:end="6.273964"
       sodipodi:open="true" />
    <path
       sodipodi:type="arc"
       style="fill:#000000;fill-opacity:1;fill-rule:nonzero;stroke:none"
       id="path3022-0"
       sodipodi:cx="47.142857"
       sodipodi:cy="441.42856"
       sodipodi:rx="10"
       sodipodi:ry="10"
       d="m 57.142857,441.42856 a 10,10 0 1 1 -4.26e-4,-0.0922"
       transform="matrix(1.6,0,0,1.6,185.28571,98.21937)"
       sodipodi:start="0"
       sodipodi:end="6.273964"
       sodipodi:open="true" />
    <path
       sodipodi:type="arc"
       style="fill:#000000;fill-opacity:1;fill-rule:nonzero;stroke:none"
       id="path3022-9"
       sodipodi:cx="47.142857"
       sodipodi:cy="441.42856"
       sodipodi:rx="10"
       sodipodi:ry="10"
       d="m 57.142857,441.42856 a 10,10 0 1 1 -4.26e-4,-0.0922"
       transform="matrix(1.6,0,0,1.6,181,45.36223)"
       sodipodi:start="0"
       sodipodi:end="6.273964"
       sodipodi:open="true" />
    <path
       sodipodi:type="arc"
       style="fill:#000000;fill-opacity:1;fill-rule:nonzero;stroke:none"
       id="path3022-4"
       sodipodi:cx="47.142857"
       sodipodi:cy="441.42856"
       sodipodi:rx="10"
       sodipodi:ry="10"
       d="m 57.142857,441.42856 a 10,10 0 1 1 -4.26e-4,-0.0922"
       transform="matrix(1.6,0,0,1.6,131,-36.06634)"
       sodipodi:start="0"
       sodipodi:end="6.273964"
       sodipodi:open="true" />
    <path
       sodipodi:type="arc"
       style="fill:#000000;fill-opacity:1;fill-rule:nonzero;stroke:none"
       id="path3022-8"
       sodipodi:cx="47.142857"
       sodipodi:cy="441.42856"
       sodipodi:rx="10"
       sodipodi:ry="10"
       d="m 57.142857,441.42856 a 10,10 0 1 1 -4.26e-4,-0.0922"
       transform="matrix(1.6,0,0,1.6,259.57143,-101.78063)"
       sodipodi:start="0"
       sodipodi:end="6.273964"
       sodipodi:open="true" />
    <path
       sodipodi:type="arc"
       style="fill:#000000;fill-opacity:1;fill-rule:nonzero;stroke:none"
       id="path3022-82"
       sodipodi:cx="47.142857"
       sodipodi:cy="441.42856"
       sodipodi:rx="10"
       sodipodi:ry="10"
       d="m 57.142857,441.42856 a 10,10 0 1 1 -4.26e-4,-0.0922"
       transform="matrix(1.6,0,0,1.6,278.14286,-14.63777)"
       sodipodi:start="0"
       sodipodi:end="6.273964"
       sodipodi:open="true" />
    <path
       sodipodi:type="arc"
       style="fill:#000000;fill-opacity:1;fill-rule:nonzero;stroke:none"
       id="path3022-45"
       sodipodi:cx="47.142857"
       sodipodi:cy="441.42856"
       sodipodi:rx="10"
       sodipodi:ry="10"
       d="m 57.142857,441.42856 a 10,10 0 1 1 -4.26e-4,-0.0922"
       transform="matrix(1.6,0,0,1.6,363.85714,76.7908)"
       sodipodi:start="0"
       sodipodi:end="6.273964"
       sodipodi:open="true" />
    <path
       sodipodi:type="arc"
       style="fill:#000000;fill-opacity:1;fill-rule:nonzero;stroke:none"
       id="path3022-5"
       sodipodi:cx="47.142857"
       sodipodi:cy="441.42856"
       sodipodi:rx="10"
       sodipodi:ry="10"
       d="m 57.142857,441.42856 a 10,10 0 1 1 -4.26e-4,-0.0922"
       transform="matrix(1.6,0,0,1.6,503.85714,69.64795)"
       sodipodi:start="0"
       sodipodi:end="6.273964"
       sodipodi:open="true" />
    <path
       sodipodi:type="arc"
       style="fill:#000000;fill-opacity:1;fill-rule:nonzero;stroke:none"
       id="path3022-1"
       sodipodi:cx="47.142857"
       sodipodi:cy="441.42856"
       sodipodi:rx="10"
       sodipodi:ry="10"
       d="m 57.142857,441.42856 a 10,10 0 1 1 -4.26e-4,-0.0922"
       transform="matrix(1.6,0,0,1.6,479.57143,-0.35205)"
       sodipodi:start="0"
       sodipodi:end="6.273964"
       sodipodi:open="true" />
    <path
       sodipodi:type="arc"
       style="fill:#000000;fill-opacity:1;fill-rule:nonzero;stroke:none"
       id="path3022-7"
       sodipodi:cx="47.142857"
       sodipodi:cy="441.42856"
       sodipodi:rx="10"
       sodipodi:ry="10"
       d="m 57.142857,441.42856 a 10,10 0 1 1 -4.26e-4,-0.0922"
       transform="matrix(1.6,0,0,1.6,371,-271.78063)"
       sodipodi:start="0"
       sodipodi:end="6.273964"
       sodipodi:open="true" />
    <path
       sodipodi:type="arc"
       style="fill:#000000;fill-opacity:1;fill-rule:nonzero;stroke:none"
       id="path3022-11"
       sodipodi:cx="47.142857"
       sodipodi:cy="441.42856"
       sodipodi:rx="10"
       sodipodi:ry="10"
       d="m 57.142857,441.42856 a 10,10 0 1 1 -4.26e-4,-0.0922"
       transform="matrix(1.6,0,0,1.6,311,-217.49491)"
       sodipodi:start="0"
       sodipodi:end="6.273964"
       sodipodi:open="true" />
    <path
       sodipodi:type="arc"
       style="fill:#000000;fill-opacity:1;fill-rule:nonzero;stroke:none"
       id="path3022-52"
       sodipodi:cx="47.142857"
       sodipodi:cy="441.42856"
       sodipodi:rx="10"
       sodipodi:ry="10"
       d="m 57.142857,441.42856 a 10,10 0 1 1 -4.26e-4,-0.0922"
       transform="matrix(1.6,0,0,1.6,185.28572,-264.63777)"
       sodipodi:start="0"
       sodipodi:end="6.273964"
       sodipodi:open="true" />
    <path
       sodipodi:type="arc"
       style="fill:#000000;fill-opacity:1;fill-rule:nonzero;stroke:none"
       id="path3022-76"
       sodipodi:cx="47.142857"
       sodipodi:cy="441.42856"
       sodipodi:rx="10"
       sodipodi:ry="10"
       d="m 57.142857,441.42856 a 10,10 0 1 1 -4.26e-4,-0.0922"
       transform="matrix(1.6,0,0,1.6,431,-250.35205)"
       sodipodi:start="0"
       sodipodi:end="6.273964"
       sodipodi:open="true" />
    <path
       sodipodi:type="arc"
       style="fill:#000000;fill-opacity:1;fill-rule:nonzero;stroke:none"
       id="path3022-14"
       sodipodi:cx="47.142857"
       sodipodi:cy="441.42856"
       sodipodi:rx="10"
       sodipodi:ry="10"
       d="m 57.142857,441.42856 a 10,10 0 1 1 -4.26e-4,-0.0922"
       transform="matrix(1.6,0,0,1.6,499.57143,-190.35205)"
       sodipodi:start="0"
       sodipodi:end="6.273964"
       sodipodi:open="true" />
    <path
       sodipodi:type="arc"
       style="fill:#000000;fill-opacity:1;fill-rule:nonzero;stroke:none"
       id="path3022-2"
       sodipodi:cx="47.142857"
       sodipodi:cy="441.42856"
       sodipodi:rx="10"
       sodipodi:ry="10"
       d="m 57.142857,441.42856 a 10,10 0 1 1 -4.26e-4,-0.0922"
       transform="matrix(1.6,0,0,1.6,549.57143,-140.35205)"
       sodipodi:start="0"
       sodipodi:end="6.273964"
       sodipodi:open="true" />
    <path
       sodipodi:type="arc"
       style="fill:#000000;fill-opacity:1;fill-rule:nonzero;stroke:none"
       id="path3022-3"
       sodipodi:cx="47.142857"
       sodipodi:cy="441.42856"
       sodipodi:rx="10"
       sodipodi:ry="10"
       d="m 57.142857,441.42856 a 10,10 0 1 1 -4.26e-4,-0.0922"
       transform="matrix(1.6,0,0,1.6,628.14286,-188.92348)"
       sodipodi:start="0"
       sodipodi:end="6.273964"
       sodipodi:open="true" />
    <path
       sodipodi:type="arc"
       style="fill:#000000;fill-opacity:1;fill-rule:nonzero;stroke:none"
       id="path3022-22"
       sodipodi:cx="47.142857"
       sodipodi:cy="441.42856"
       sodipodi:rx="10"
       sodipodi:ry="10"
       d="m 57.142857,441.42856 a 10,10 0 1 1 -4.26e-4,-0.0922"
       transform="matrix(1.6,0,0,1.6,705.28571,-253.2092)"
       sodipodi:start="0"
       sodipodi:end="6.273964"
       sodipodi:open="true" />
    <path
       sodipodi:type="arc"
       style="fill:#000000;fill-opacity:1;fill-rule:nonzero;stroke:none"
       id="path3022-16"
       sodipodi:cx="47.142857"
       sodipodi:cy="441.42856"
       sodipodi:rx="10"
       sodipodi:ry="10"
       d="m 57.142857,441.42856 a 10,10 0 1 1 -4.26e-4,-0.0922"
       transform="matrix(1.6,0,0,1.6,755.28571,-230.35205)"
       sodipodi:start="0"
       sodipodi:end="6.273964"
       sodipodi:open="true" />
    <path
       sodipodi:type="arc"
       style="fill:#000000;fill-opacity:1;fill-rule:nonzero;stroke:none"
       id="path3022-85"
       sodipodi:cx="47.142857"
       sodipodi:cy="441.42856"
       sodipodi:rx="10"
       sodipodi:ry="10"
       d="m 57.142857,441.42856 a 10,10 0 1 1 -4.26e-4,-0.0922"
       transform="matrix(1.6,0,0,1.6,822.42857,-118.92348)"
       sodipodi:start="0"
       sodipodi:end="6.273964"
       sodipodi:open="true" />
    <path
       sodipodi:type="arc"
       style="fill:#000000;fill-opacity:1;fill-rule:nonzero;stroke:none"
       id="path3022-761"
       sodipodi:cx="47.142857"
       sodipodi:cy="441.42856"
       sodipodi:rx="10"
       sodipodi:ry="10"
       d="m 57.142857,441.42856 a 10,10 0 1 1 -4.26e-4,-0.0922"
       transform="matrix(1.6,0,0,1.6,831,72.50509)"
       sodipodi:start="0"
       sodipodi:end="6.273964"
       sodipodi:open="true" />
  </g>
</svg>
