<?xml version="1.0" encoding="UTF-8" standalone="no"?>
<!-- Created with Inkscape (http://www.inkscape.org/) -->

<svg
   xmlns:dc="http://purl.org/dc/elements/1.1/"
   xmlns:cc="http://creativecommons.org/ns#"
   xmlns:rdf="http://www.w3.org/1999/02/22-rdf-syntax-ns#"
   xmlns:svg="http://www.w3.org/2000/svg"
   xmlns="http://www.w3.org/2000/svg"
   xmlns:sodipodi="http://sodipodi.sourceforge.net/DTD/sodipodi-0.dtd"
   xmlns:inkscape="http://www.inkscape.org/namespaces/inkscape"
   width="800"
   height="480"
   id="svg2"
   version="1.1"
   inkscape:version="0.48.2 r9819"
   sodipodi:docname="world_map.svg">
  <defs
     id="defs4" />
  <sodipodi:namedview
     id="base"
     pagecolor="#ffffff"
     bordercolor="#666666"
     borderopacity="1.0"
     inkscape:pageopacity="0.0"
     inkscape:pageshadow="2"
     inkscape:zoom="0.7"
     inkscape:cx="321.1817"
     inkscape:cy="359.54813"
     inkscape:document-units="px"
     inkscape:current-layer="layer1"
     showgrid="false"
     inkscape:showpageshadow="false"
     inkscape:window-width="1280"
     inkscape:window-height="998"
     inkscape:window-x="-4"
     inkscape:window-y="-4"
     inkscape:window-maximized="1" />
  <metadata
     id="metadata7">
    <rdf:RDF>
      <cc:Work
         rdf:about="">
        <dc:format>image/svg+xml</dc:format>
        <dc:type
           rdf:resource="http://purl.org/dc/dcmitype/StillImage" />
      </cc:Work>
    </rdf:RDF>
  </metadata>
  <g
     inkscape:label="Calque 1"
     inkscape:groupmode="layer"
     id="layer1"
     transform="translate(0,-572.36218)">
    <path
       style="fill:#008000;fill-opacity:1;fill-rule:nonzero;stroke:none"
       d="M 0,602.3622 708.57143,629.50506 695.92149,1059.5051 0,1052.3622 z"
       id="rect2987"
       inkscape:connector-curvature="0"
       sodipodi:nodetypes="ccccc" />
    <path
       style="fill:#aa8800;fill-opacity:1;fill-rule:nonzero;stroke:none"
       d="M -10.000002,600.21931 -8.5714276,553.07646 483.06434,544.50505 747.73397,562.45928 520,863.07647 z"
       id="rect2987-1"
       inkscape:connector-curvature="0"
       sodipodi:nodetypes="cccccc" />
    <path
       style="fill:#782121;fill-opacity:1;fill-rule:nonzero;stroke:none"
       d="m 402.85715,604.50503 85.71428,-7.14286 113.23199,71.84254 -103.02479,113.87177 -141.63577,-25.71429 z"
       id="rect2987-7"
       inkscape:connector-curvature="0"
       sodipodi:nodetypes="cccccc" />
    <path
       style="fill:#87aade;fill-opacity:1;fill-rule:nonzero;stroke:none"
       d="m 722.64994,560.93356 78.57143,8.57143 L 800,1052.3622 l -283.06435,2.8571 z"
       id="rect2987-4"
       inkscape:connector-curvature="0"
       sodipodi:nodetypes="ccccc" />
    <path
       style="fill:none;stroke:#000000;stroke-width:2;stroke-linecap:butt;stroke-linejoin:miter;stroke-opacity:1;stroke-miterlimit:4;stroke-dasharray:8,16;stroke-dashoffset:0"
       d="m 50,432.85714 54.28571,-45.71428 -2.85714,-52.85715 -48.571427,-82.85714 144.285717,20 88.57143,94.28572 135.71428,-8.57143 L 400,285.71429 180,187.14286 101.42857,20 l 125.71429,51.428571 61.42857,-54.285714 65.71428,20 L 421.42857,100 470,148.57143 548.57143,100 624.28571,35.714285 678.57143,60 l 65.71428,110 7.14286,192.85714"
       id="path3168"
       inkscape:connector-curvature="0"
       transform="translate(0,572.36218)" />
    <path
       sodipodi:type="arc"
       style="fill:#000000;fill-opacity:1;fill-rule:nonzero;stroke:none"
       id="path3022"
       sodipodi:cx="47.142857"
       sodipodi:cy="441.42856"
       sodipodi:rx="10"
       sodipodi:ry="10"
       d="m 57.142857,441.42856 a 10,10 0 1 1 -4.26e-4,-0.0922"
       transform="matrix(1.6,0,0,1.6,-22.285571,301.50504)"
       sodipodi:start="0"
       sodipodi:end="6.273964"
       sodipodi:open="true" />
    <path
       sodipodi:type="arc"
       style="fill:#000000;fill-opacity:1;fill-rule:nonzero;stroke:none"
       id="path3022-0"
       sodipodi:cx="47.142857"
       sodipodi:cy="441.42856"
       sodipodi:rx="10"
       sodipodi:ry="10"
       d="m 57.142857,441.42856 a 10,10 0 1 1 -4.26e-4,-0.0922"
       transform="matrix(1.6,0,0,1.6,28.857144,253.21934)"
       sodipodi:start="0"
       sodipodi:end="6.273964"
       sodipodi:open="true" />
    <path
       sodipodi:type="arc"
       style="fill:#000000;fill-opacity:1;fill-rule:nonzero;stroke:none"
       id="path3022-9"
       sodipodi:cx="47.142857"
       sodipodi:cy="441.42856"
       sodipodi:rx="10"
       sodipodi:ry="10"
       d="m 57.142857,441.42856 a 10,10 0 1 1 -4.26e-4,-0.0922"
       transform="matrix(1.6,0,0,1.6,24.571429,200.3622)"
       sodipodi:start="0"
       sodipodi:end="6.273964"
       sodipodi:open="true" />
    <path
       sodipodi:type="arc"
       style="fill:#000000;fill-opacity:1;fill-rule:nonzero;stroke:none"
       id="path3022-4"
       sodipodi:cx="47.142857"
       sodipodi:cy="441.42856"
       sodipodi:rx="10"
       sodipodi:ry="10"
       d="m 57.142857,441.42856 a 10,10 0 1 1 -4.26e-4,-0.0922"
       transform="matrix(1.6,0,0,1.6,-25.428571,118.93363)"
       sodipodi:start="0"
       sodipodi:end="6.273964"
       sodipodi:open="true" />
    <path
       sodipodi:type="arc"
       style="fill:#000000;fill-opacity:1;fill-rule:nonzero;stroke:none"
       id="path3022-8"
       sodipodi:cx="47.142857"
       sodipodi:cy="441.42856"
       sodipodi:rx="10"
       sodipodi:ry="10"
       d="m 57.142857,441.42856 a 10,10 0 1 1 -4.26e-4,-0.0922"
       transform="matrix(1.6,0,0,1.6,103.14286,53.219344)"
       sodipodi:start="0"
       sodipodi:end="6.273964"
       sodipodi:open="true" />
    <path
       sodipodi:type="arc"
       style="fill:#000000;fill-opacity:1;fill-rule:nonzero;stroke:none"
       id="path3022-82"
       sodipodi:cx="47.142857"
       sodipodi:cy="441.42856"
       sodipodi:rx="10"
       sodipodi:ry="10"
       d="m 57.142857,441.42856 a 10,10 0 1 1 -4.26e-4,-0.0922"
       transform="matrix(1.6,0,0,1.6,121.71429,140.3622)"
       sodipodi:start="0"
       sodipodi:end="6.273964"
       sodipodi:open="true" />
    <path
       sodipodi:type="arc"
       style="fill:#000000;fill-opacity:1;fill-rule:nonzero;stroke:none"
       id="path3022-45"
       sodipodi:cx="47.142857"
       sodipodi:cy="441.42856"
       sodipodi:rx="10"
       sodipodi:ry="10"
       d="m 57.142857,441.42856 a 10,10 0 1 1 -4.26e-4,-0.0922"
       transform="matrix(1.6,0,0,1.6,207.42857,231.79077)"
       sodipodi:start="0"
       sodipodi:end="6.273964"
       sodipodi:open="true" />
    <path
       sodipodi:type="arc"
       style="fill:#000000;fill-opacity:1;fill-rule:nonzero;stroke:none"
       id="path3022-5"
       sodipodi:cx="47.142857"
       sodipodi:cy="441.42856"
       sodipodi:rx="10"
       sodipodi:ry="10"
       d="m 57.142857,441.42856 a 10,10 0 1 1 -4.26e-4,-0.0922"
       transform="matrix(1.6,0,0,1.6,347.42857,224.64792)"
       sodipodi:start="0"
       sodipodi:end="6.273964"
       sodipodi:open="true" />
    <path
       sodipodi:type="arc"
       style="fill:#000000;fill-opacity:1;fill-rule:nonzero;stroke:none"
       id="path3022-1"
       sodipodi:cx="47.142857"
       sodipodi:cy="441.42856"
       sodipodi:rx="10"
       sodipodi:ry="10"
       d="m 57.142857,441.42856 a 10,10 0 1 1 -4.26e-4,-0.0922"
       transform="matrix(1.6,0,0,1.6,323.14286,154.64792)"
       sodipodi:start="0"
       sodipodi:end="6.273964"
       sodipodi:open="true" />
    <path
       sodipodi:type="arc"
       style="fill:#000000;fill-opacity:1;fill-rule:nonzero;stroke:none"
       id="path3022-7"
       sodipodi:cx="47.142857"
       sodipodi:cy="441.42856"
       sodipodi:rx="10"
       sodipodi:ry="10"
       d="m 57.142857,441.42856 a 10,10 0 1 1 -4.26e-4,-0.0922"
       transform="matrix(1.6,0,0,1.6,214.57143,-116.78066)"
       sodipodi:start="0"
       sodipodi:end="6.273964"
       sodipodi:open="true" />
    <path
       sodipodi:type="arc"
       style="fill:#000000;fill-opacity:1;fill-rule:nonzero;stroke:none"
       id="path3022-11"
       sodipodi:cx="47.142857"
       sodipodi:cy="441.42856"
       sodipodi:rx="10"
       sodipodi:ry="10"
       d="m 57.142857,441.42856 a 10,10 0 1 1 -4.26e-4,-0.0922"
       transform="matrix(1.6,0,0,1.6,154.57143,-62.494942)"
       sodipodi:start="0"
       sodipodi:end="6.273964"
       sodipodi:open="true" />
    <path
       sodipodi:type="arc"
       style="fill:#000000;fill-opacity:1;fill-rule:nonzero;stroke:none"
       id="path3022-52"
       sodipodi:cx="47.142857"
       sodipodi:cy="441.42856"
       sodipodi:rx="10"
       sodipodi:ry="10"
       d="m 57.142857,441.42856 a 10,10 0 1 1 -4.26e-4,-0.0922"
       transform="matrix(1.6,0,0,1.6,28.857147,-109.6378)"
       sodipodi:start="0"
       sodipodi:end="6.273964"
       sodipodi:open="true" />
    <path
       sodipodi:type="arc"
       style="fill:#000000;fill-opacity:1;fill-rule:nonzero;stroke:none"
       id="path3022-76"
       sodipodi:cx="47.142857"
       sodipodi:cy="441.42856"
       sodipodi:rx="10"
       sodipodi:ry="10"
       d="m 57.142857,441.42856 a 10,10 0 1 1 -4.26e-4,-0.0922"
       transform="matrix(1.6,0,0,1.6,274.57143,-95.352085)"
       sodipodi:start="0"
       sodipodi:end="6.273964"
       sodipodi:open="true" />
    <path
       sodipodi:type="arc"
       style="fill:#000000;fill-opacity:1;fill-rule:nonzero;stroke:none"
       id="path3022-14"
       sodipodi:cx="47.142857"
       sodipodi:cy="441.42856"
       sodipodi:rx="10"
       sodipodi:ry="10"
       d="m 57.142857,441.42856 a 10,10 0 1 1 -4.26e-4,-0.0922"
       transform="matrix(1.6,0,0,1.6,343.14286,-35.352085)"
       sodipodi:start="0"
       sodipodi:end="6.273964"
       sodipodi:open="true" />
    <path
       sodipodi:type="arc"
       style="fill:#000000;fill-opacity:1;fill-rule:nonzero;stroke:none"
       id="path3022-2"
       sodipodi:cx="47.142857"
       sodipodi:cy="441.42856"
       sodipodi:rx="10"
       sodipodi:ry="10"
       d="m 57.142857,441.42856 a 10,10 0 1 1 -4.26e-4,-0.0922"
       transform="matrix(1.6,0,0,1.6,393.14286,14.647915)"
       sodipodi:start="0"
       sodipodi:end="6.273964"
       sodipodi:open="true" />
    <path
       sodipodi:type="arc"
       style="fill:#000000;fill-opacity:1;fill-rule:nonzero;stroke:none"
       id="path3022-3"
       sodipodi:cx="47.142857"
       sodipodi:cy="441.42856"
       sodipodi:rx="10"
       sodipodi:ry="10"
       d="m 57.142857,441.42856 a 10,10 0 1 1 -4.26e-4,-0.0922"
       transform="matrix(1.6,0,0,1.6,471.71429,-33.923514)"
       sodipodi:start="0"
       sodipodi:end="6.273964"
       sodipodi:open="true" />
    <path
       sodipodi:type="arc"
       style="fill:#000000;fill-opacity:1;fill-rule:nonzero;stroke:none"
       id="path3022-22"
       sodipodi:cx="47.142857"
       sodipodi:cy="441.42856"
       sodipodi:rx="10"
       sodipodi:ry="10"
       d="m 57.142857,441.42856 a 10,10 0 1 1 -4.26e-4,-0.0922"
       transform="matrix(1.6,0,0,1.6,548.85714,-98.209228)"
       sodipodi:start="0"
       sodipodi:end="6.273964"
       sodipodi:open="true" />
    <path
       sodipodi:type="arc"
       style="fill:#000000;fill-opacity:1;fill-rule:nonzero;stroke:none"
       id="path3022-16"
       sodipodi:cx="47.142857"
       sodipodi:cy="441.42856"
       sodipodi:rx="10"
       sodipodi:ry="10"
       d="m 57.142857,441.42856 a 10,10 0 1 1 -4.26e-4,-0.0922"
       transform="matrix(1.6,0,0,1.6,598.85714,-75.352085)"
       sodipodi:start="0"
       sodipodi:end="6.273964"
       sodipodi:open="true" />
    <path
       sodipodi:type="arc"
       style="fill:#000000;fill-opacity:1;fill-rule:nonzero;stroke:none"
       id="path3022-85"
       sodipodi:cx="47.142857"
       sodipodi:cy="441.42856"
       sodipodi:rx="10"
       sodipodi:ry="10"
       d="m 57.142857,441.42856 a 10,10 0 1 1 -4.26e-4,-0.0922"
       transform="matrix(1.6,0,0,1.6,666,36.076486)"
       sodipodi:start="0"
       sodipodi:end="6.273964"
       sodipodi:open="true" />
    <path
       sodipodi:type="arc"
       style="fill:#000000;fill-opacity:1;fill-rule:nonzero;stroke:none"
       id="path3022-761"
       sodipodi:cx="47.142857"
       sodipodi:cy="441.42856"
       sodipodi:rx="10"
       sodipodi:ry="10"
       d="m 57.142857,441.42856 a 10,10 0 1 1 -4.26e-4,-0.0922"
       transform="matrix(1.6,0,0,1.6,674.57143,227.50506)"
       sodipodi:start="0"
       sodipodi:end="6.273964"
       sodipodi:open="true" />
  </g>
</svg>
